<?xml version="1.0" encoding="UTF-8" standalone="no"?>
<!-- Created with Inkscape (http://www.inkscape.org/) -->

<svg
   width="18.338093mm"
   height="13.063625mm"
   viewBox="0 0 18.338093 13.063625"
   version="1.1"
   id="svg1"
   xml:space="preserve"
   inkscape:version="1.3-dev (38535c2, 2022-11-14)"
   sodipodi:docname="BlenderCAM Icon.svg"
   xmlns:inkscape="http://www.inkscape.org/namespaces/inkscape"
   xmlns:sodipodi="http://sodipodi.sourceforge.net/DTD/sodipodi-0.dtd"
   xmlns="http://www.w3.org/2000/svg"
   xmlns:svg="http://www.w3.org/2000/svg"><sodipodi:namedview
     id="namedview1"
     pagecolor="#ffffff"
     bordercolor="#000000"
     borderopacity="0.25"
     inkscape:showpageshadow="2"
     inkscape:pageopacity="0.0"
     inkscape:pagecheckerboard="0"
     inkscape:deskcolor="#d1d1d1"
     inkscape:document-units="mm"
     inkscape:zoom="0.53668681"
     inkscape:cx="-2048.6809"
     inkscape:cy="966.1128"
     inkscape:window-width="2560"
     inkscape:window-height="1415"
     inkscape:window-x="1680"
     inkscape:window-y="0"
     inkscape:window-maximized="1"
     inkscape:current-layer="layer1"
     showgrid="false" /><defs
     id="defs1" /><g
     inkscape:label="Calque 1"
     inkscape:groupmode="layer"
     id="layer1"
     transform="translate(918.80306,-203.66807)"><rect
       style="fill:#181818;fill-opacity:1;stroke:none;stroke-width:0.4;stroke-linecap:round;stroke-linejoin:round;stroke-dasharray:none;stroke-dashoffset:0;stroke-opacity:1"
       id="rect56"
       width="508.71652"
       height="286.60947"
       x="-935.83588"
       y="69.388832"
       sodipodi:insensitive="true" /><g
       id="g88"
       transform="matrix(0.32269155,0,0,0.32269155,-639.10803,86.074163)"
       style="fill:none;stroke:#ffffff;stroke-width:0.92968;stroke-dasharray:none;stroke-opacity:1"><path
         style="fill:none;fill-opacity:1;stroke:#ffffff;stroke-width:0.92968;stroke-dasharray:none;stroke-opacity:1"
         d="m -846.47604,365.01153 c -3.74062,0.34613 -7.91858,1.28252 -10.72933,3.67284 -1.59489,1.35631 -2.47275,3.39784 -3.30161,5.18731 -1.75906,3.79774 -3.16233,7.80082 -4.19016,11.81012 -0.61407,2.39531 -1.17909,4.79161 -1.44474,7.24204 -0.14391,1.32741 -0.2815,2.81835 0.10096,4.12238 0.46903,1.59895 2.42327,2.53875 3.87106,3.36181 2.89338,1.64488 6.14487,3.12794 9.51512,3.76272 1.48792,0.28026 3.23897,0.42747 4.69557,-0.05 0.64918,-0.21279 1.24857,-0.57773 1.51957,-1.17298 0.48714,-1.06999 -0.38959,-2.25631 -1.64334,-2.34859 -0.92391,-0.0681 -1.77132,0.36759 -2.71821,0.27505 -2.97004,-0.29031 -5.99241,-1.73421 -8.52653,-3.08515 -0.91444,-0.48749 -2.21923,-1.0632 -2.81094,-1.88543 -0.3797,-0.52765 -0.29687,-1.26765 -0.24284,-1.86568 0.12851,-1.42262 0.45199,-2.8325 0.73984,-4.23381 0.87405,-4.25516 2.18052,-8.52052 3.80847,-12.59 0.78022,-1.95033 1.57487,-4.16348 3.21691,-5.67348 1.94241,-1.78619 4.84508,-2.53118 7.5223,-2.86762 1.4059,-0.17669 3.65836,0.10564 4.4988,-1.16316 0.57213,-0.86373 0.11178,-2.04578 -0.92531,-2.41308 -0.84923,-0.30078 -2.06608,-0.16762 -2.95564,-0.0854 m 13.356,0.0799 c -1.52557,0.52359 -1.5102,2.44733 -0.12618,3.10051 0.99946,0.47168 2.47448,0.3262 3.57611,0.46783 2.34086,0.30094 4.88323,0.89181 6.79634,2.20171 1.98888,1.36179 2.88982,3.5353 3.74518,5.57268 1.75613,4.18304 3.00507,8.55219 4.02437,12.92426 0.32613,1.39894 0.61009,2.81353 0.79401,4.23382 0.084,0.64861 0.23115,1.48578 -0.0681,2.1042 -0.41453,0.85663 -1.72019,1.42974 -2.5638,1.89341 -2.52621,1.38847 -5.45863,2.76859 -8.40296,3.22076 -1.54975,0.23801 -3.81878,-0.91111 -4.77129,0.70717 -0.54202,0.92087 -0.0192,1.93847 0.94474,2.40959 1.16079,0.56727 2.67091,0.55121 3.95012,0.4271 3.8968,-0.37807 7.74603,-2.21454 10.998,-4.08782 1.20063,-0.69163 2.76123,-1.46104 3.40403,-2.66378 0.42042,-0.78665 0.42504,-1.70842 0.42655,-2.56221 0.003,-1.68938 -0.23532,-3.34999 -0.54581,-5.01374 -0.86751,-4.64854 -2.31525,-9.28971 -4.14232,-13.70416 -0.92476,-2.23435 -1.84946,-4.5966 -3.3611,-6.57283 -2.26634,-2.96291 -6.86082,-4.12081 -10.61011,-4.59887 -1.21374,-0.15477 -2.88562,-0.46535 -4.0678,-0.0597 m -7.30092,4.82049 c -4.58906,0.38525 -9.10366,1.4971 -13.22231,3.37691 -0.71916,0.32823 -1.56058,0.67282 -2.03796,1.28463 -0.75508,0.96773 -0.23532,2.34398 1.05042,2.65843 0.98823,0.2417 1.88442,-0.30899 2.71756,-0.70397 1.26613,-0.60025 2.60954,-1.09429 3.95434,-1.53156 4.01234,-1.30467 8.47153,-1.90175 12.72802,-1.50702 2.94799,0.2734 5.83385,0.9767 8.52654,2.09531 1.30395,0.5417 3.06651,1.94278 4.57172,1.67274 1.3613,-0.24422 1.95306,-1.67954 1.17343,-2.68509 -0.81729,-1.05412 -2.64707,-1.6328 -3.89156,-2.1725 -4.76258,-2.06539 -10.30568,-2.92987 -15.5702,-2.48788 m -6.67293,13.40417 c -4.2321,0.82295 -3.96428,7.33157 0.37071,7.79072 0.44709,0.0474 0.92036,0.0361 1.35931,-0.0575 4.11435,-0.87664 4.0503,-7.22177 -0.24716,-7.77246 -0.48581,-0.0623 -1.00265,-0.0542 -1.48286,0.0392 m 15.81734,0 c -4.2321,0.82295 -3.96428,7.33157 0.37071,7.79072 0.44709,0.0473 0.92036,0.0361 1.35931,-0.0575 4.11436,-0.87664 4.05029,-7.22178 -0.24716,-7.77246 -0.4858,-0.0623 -1.00265,-0.0542 -1.48286,0.0392 m -21.13098,14.39855 c 8.64794,3.97492 19.5443,4.16476 28.17464,0 0.80434,1.08762 2.16333,1.26713 3.26323,0.37616 1.19959,-0.97173 1.9932,-2.41018 2.27842,-3.83007 0.18154,-0.90386 0.0576,-1.94844 -0.98594,-2.38518 -1.2577,-0.52636 -2.35912,0.34594 -3.31999,0.96004 -2.05873,1.31577 -4.28068,2.36665 -6.67294,3.09555 -6.30466,1.921 -13.5942,1.67966 -19.6481,-0.87263 -2.00525,-0.84542 -3.66497,-2.05603 -5.56078,-3.04336 -0.76957,-0.4008 -1.68482,-0.49191 -2.41518,0.0383 -0.764,0.55456 -0.81704,1.4007 -0.65502,2.20733 0.28627,1.42523 1.08366,2.85345 2.27842,3.83539 1.09059,0.89631 2.45823,0.6913 3.26324,-0.38148 z"
         id="path90" /></g></g></svg>
