<?xml version="1.0" encoding="UTF-8" standalone="no"?>
<!-- Created with Inkscape (http://www.inkscape.org/) -->

<svg
   width="17.190489mm"
   height="17.190456mm"
   viewBox="0 0 17.190489 17.190456"
   version="1.1"
   id="svg1"
   xml:space="preserve"
   inkscape:version="1.3-dev (38535c2, 2022-11-14)"
   sodipodi:docname="BlenderCAM Icon.svg"
   xmlns:inkscape="http://www.inkscape.org/namespaces/inkscape"
   xmlns:sodipodi="http://sodipodi.sourceforge.net/DTD/sodipodi-0.dtd"
   xmlns="http://www.w3.org/2000/svg"
   xmlns:svg="http://www.w3.org/2000/svg"><sodipodi:namedview
     id="namedview1"
     pagecolor="#ffffff"
     bordercolor="#000000"
     borderopacity="0.25"
     inkscape:showpageshadow="2"
     inkscape:pageopacity="0.0"
     inkscape:pagecheckerboard="0"
     inkscape:deskcolor="#d1d1d1"
     inkscape:document-units="mm"
     inkscape:zoom="0.53668681"
     inkscape:cx="-2048.6809"
     inkscape:cy="966.1128"
     inkscape:window-width="2560"
     inkscape:window-height="1415"
     inkscape:window-x="1680"
     inkscape:window-y="0"
     inkscape:window-maximized="1"
     inkscape:current-layer="layer1"
     showgrid="false" /><defs
     id="defs1" /><g
     inkscape:label="Calque 1"
     inkscape:groupmode="layer"
     id="layer1"
     transform="translate(918.22884,-168.57022)"><rect
       style="fill:#181818;fill-opacity:1;stroke:none;stroke-width:0.4;stroke-linecap:round;stroke-linejoin:round;stroke-dasharray:none;stroke-dashoffset:0;stroke-opacity:1"
       id="rect56"
       width="508.71652"
       height="286.60947"
       x="-935.83588"
       y="69.388832"
       sodipodi:insensitive="true" /><path
       style="fill:none;fill-opacity:1;stroke:#ffffff;stroke-width:0.3;stroke-linecap:round;stroke-linejoin:round;stroke-dasharray:none;stroke-opacity:1"
       d="m -910.51476,185.33499 -0.70994,-0.26379 -0.74543,-0.48567 -0.74544,-0.48567 -0.59887,-0.64704 -0.59884,-0.64704 -0.35451,-0.68033 -0.3545,-0.68032 -0.20492,-0.74182 -0.20495,-0.74181 -0.0104,-0.77915 -0.0104,-0.77916 0.37271,-0.33356 0.3727,-0.33356 h 0.22108 0.22108 l 0.2683,0.12224 0.2683,0.12224 0.15157,0.24281 0.15172,0.24283 0.0934,0.83263 0.0934,0.83263 0.21751,0.48564 0.21752,0.48565 0.46394,0.61276 0.46395,0.61277 0.72218,0.4382 0.72218,0.4382 0.6802,0.17587 0.68019,0.17588 h 0.36671 0.3667 l 0.35114,0.29545 0.35112,0.29547 v 0.43096 0.43096 l -0.23654,0.3007 -0.23653,0.30071 -1.04737,-0.006 -1.04737,-0.006 z m 2.18082,-2.79665 -0.24102,-0.10414 -0.24403,-0.31022 -0.24399,-0.31021 v -0.20749 -0.20749 l 0.12221,-0.2683 0.12234,-0.2683 0.24282,-0.15164 0.24283,-0.15164 0.83262,-0.0934 0.83265,-0.0934 0.48563,-0.21752 0.48563,-0.21751 0.61278,-0.46395 0.61276,-0.46394 0.43822,-0.72219 0.43818,-0.72218 0.17588,-0.68019 0.17588,-0.68019 v -0.36671 -0.3667 l 0.29544,-0.35113 0.29547,-0.35113 h 0.43096 0.43096 l 0.30069,0.23653 0.30071,0.23654 v 0.99667 0.99669 l -0.2397,0.70982 -0.23972,0.70982 -0.53939,0.82628 -0.53941,0.82628 -0.65369,0.58262 -0.65369,0.58263 -0.56799,0.30914 -0.56799,0.30914 -0.76476,0.21871 -0.76478,0.2187 -0.68672,0.057 -0.6867,0.057 z m -9.4442,-3.21281 -0.30071,-0.23653 v -0.99668 -0.99668 l 0.2397,-0.70982 0.23974,-0.70983 0.5391,-0.82448 0.53911,-0.8245 0.62806,-0.57276 0.62806,-0.57278 0.6759,-0.35234 0.6759,-0.35235 0.7418,-0.20495 0.74182,-0.20494 0.77914,-0.0112 0.77916,-0.0112 0.33356,0.37271 0.33357,0.37271 v 0.22107 0.22108 l -0.12234,0.26831 -0.12221,0.26829 -0.24283,0.15164 -0.24282,0.15165 -0.83264,0.0934 -0.83262,0.0934 -0.48564,0.21752 -0.48565,0.21751 -0.61276,0.46394 -0.61279,0.46395 -0.43818,0.72218 -0.43819,0.72218 -0.17589,0.68019 -0.17587,0.6802 v 0.3667 0.36671 l -0.29545,0.35113 -0.29547,0.35113 h -0.43095 -0.43098 z m 12.07627,-2.85975 -0.23383,-0.1136 -0.15218,-0.24374 -0.15219,-0.24375 -0.0934,-0.83263 -0.0934,-0.83263 -0.21752,-0.48564 -0.2175,-0.48564 -0.46396,-0.61277 -0.46392,-0.61277 -0.7222,-0.4382 -0.72217,-0.43821 -0.6802,-0.17587 -0.68019,-0.17587 h -0.36671 -0.36669 l -0.35114,-0.29546 -0.35114,-0.29545 v -0.43097 -0.43096 l 0.23656,-0.30071 0.23652,-0.30069 h 0.99668 0.99667 l 0.70983,0.2397 0.70983,0.23972 0.82449,0.53911 0.82448,0.53912 0.57277,0.62806 0.57276,0.62805 0.35237,0.67589 0.35234,0.67589 0.20494,0.74182 0.20495,0.74181 0.0104,0.77916 0.0104,0.77915 -0.37269,0.33356 -0.37271,0.33356 -0.25498,-0.008 -0.25499,-0.008 z"
       id="path89" /></g></svg>
