<?xml version="1.0" encoding="UTF-8" standalone="no"?>
<!-- Created with Inkscape (http://www.inkscape.org/) -->

<svg
   width="16.379425mm"
   height="18.73534mm"
   viewBox="0 0 16.379425 18.73534"
   version="1.1"
   id="svg1"
   xml:space="preserve"
   inkscape:version="1.3-dev (38535c2, 2022-11-14)"
   sodipodi:docname="BlenderCAM Icon.svg"
   xmlns:inkscape="http://www.inkscape.org/namespaces/inkscape"
   xmlns:sodipodi="http://sodipodi.sourceforge.net/DTD/sodipodi-0.dtd"
   xmlns="http://www.w3.org/2000/svg"
   xmlns:svg="http://www.w3.org/2000/svg"><sodipodi:namedview
     id="namedview1"
     pagecolor="#ffffff"
     bordercolor="#000000"
     borderopacity="0.25"
     inkscape:showpageshadow="2"
     inkscape:pageopacity="0.0"
     inkscape:pagecheckerboard="0"
     inkscape:deskcolor="#d1d1d1"
     inkscape:document-units="mm"
     inkscape:zoom="0.53668681"
     inkscape:cx="-2048.6809"
     inkscape:cy="966.1128"
     inkscape:window-width="2560"
     inkscape:window-height="1415"
     inkscape:window-x="1680"
     inkscape:window-y="0"
     inkscape:window-maximized="1"
     inkscape:current-layer="layer1"
     showgrid="false" /><defs
     id="defs1" /><g
     inkscape:label="Calque 1"
     inkscape:groupmode="layer"
     id="layer1"
     transform="translate(917.82387,-234.63908)"><rect
       style="fill:#181818;fill-opacity:1;stroke:none;stroke-width:0.4;stroke-linecap:round;stroke-linejoin:round;stroke-dasharray:none;stroke-dashoffset:0;stroke-opacity:1"
       id="rect56"
       width="508.71652"
       height="286.60947"
       x="-935.83588"
       y="69.388832"
       sodipodi:insensitive="true" /><path
       style="fill:none;fill-opacity:1;stroke:#ffffff;stroke-width:0.3;stroke-dasharray:none;stroke-opacity:1"
       d="m -911.77262,252.26261 v -0.96147 l -0.81013,-0.04 c -1.59386,-0.0787 -2.4177,-0.6456 -2.92528,-2.0128 -0.404,-1.08822 -0.4092,-1.09461 -0.93212,-1.1446 -1.91398,-0.183 -1.48161,-2.29691 0.46979,-2.29691 1.41522,0 1.84354,0.28884 2.42472,1.6351 0.42679,0.98863 0.51664,1.06436 1.26357,1.06494 l 0.53471,5.5e-4 0.0877,-0.50409 c 0.10754,-0.61814 0.28861,-1.04415 0.63815,-1.50133 0.14681,-0.19202 0.25661,-0.35689 0.24399,-0.36635 -0.0126,-0.01 -0.16874,-0.0734 -0.34697,-0.142 -3.13176,-1.2059 -4.60225,-4.45641 -3.20576,-7.08631 l 0.25325,-0.47693 6.2e-4,-1.08254 c 6.2e-4,-1.14036 0.0748,-1.58473 0.36876,-2.21673 l 0.15909,-0.34206 h 0.45222 c 0.90171,0 1.62873,0.25677 2.28342,0.80645 l 0.34785,0.29207 0.5883,-0.13376 c 0.80801,-0.1837 2.43297,-0.1841 3.30805,-6.2e-4 l 0.63138,0.13224 0.32817,-0.3025 c 0.56789,-0.52346 1.34903,-0.79368 2.29432,-0.79368 h 0.44499 l 0.15786,0.38085 c 0.26155,0.63104 0.37014,1.3149 0.37148,2.33941 0.002,0.94438 0.005,0.9619 0.24828,1.44648 1.33078,2.64257 -0.0907,5.78765 -3.16352,6.99936 -0.23765,0.0937 -0.44472,0.17885 -0.46018,0.1892 -0.0155,0.0103 0.0885,0.14785 0.23092,0.30554 0.70887,0.78463 0.76934,1.11441 0.76934,4.19493 v 2.57937 h -3.52859 -3.5286 z m 6.32457,-2.04505 -0.0235,-2.21438 -0.20117,-0.43208 c -0.14526,-0.31198 -0.3931,-0.62523 -0.89174,-1.12709 l -0.69056,-0.69502 0.41181,-0.0855 c 3.62678,-0.75293 5.55457,-4.01707 3.92663,-6.64864 l -0.21457,-0.34684 v -1.17035 c 0,-0.8562 -0.0305,-1.27302 -0.11361,-1.55289 l -0.11359,-0.38253 -0.44662,0.0358 c -0.56412,0.0453 -0.96662,0.24905 -1.50344,0.76108 l -0.41938,0.40002 -0.66401,-0.17499 c -0.95168,-0.2508 -2.73561,-0.25424 -3.67316,-0.007 l -0.63275,0.16679 -0.42349,-0.39208 c -0.56954,-0.5273 -1.00199,-0.73188 -1.55045,-0.73348 l -0.43095,-0.002 -0.10224,0.28805 c -0.0676,0.19026 -0.11349,0.72482 -0.13536,1.57468 -0.0324,1.25889 -0.0375,1.29382 -0.23696,1.62027 -1.52942,2.50318 0.27765,5.65971 3.72084,6.49944 l 0.64406,0.15707 -0.69447,0.69122 c -0.75003,0.74655 -0.96635,1.13988 -1.05294,1.91466 -0.0841,0.75188 -0.29692,0.90093 -1.28674,0.90093 -1.11207,0 -1.47299,-0.25828 -1.93305,-1.38332 -0.47424,-1.15976 -0.71873,-1.34881 -1.74786,-1.35156 -1.12242,-0.003 -1.35859,0.65606 -0.29745,0.83012 0.7727,0.12674 0.92174,0.27106 1.27665,1.23619 0.57447,1.56225 0.92785,1.8247 2.54382,1.88928 1.32703,0.053 1.37662,0.0949 1.41236,1.19318 l 0.0246,0.75465 h 2.77141 2.77141 z"
       id="path87" /></g></svg>
