<?xml version="1.0" encoding="UTF-8" standalone="no"?>
<!-- Created with Inkscape (http://www.inkscape.org/) -->

<svg
   width="110.8526mm"
   height="69.272713mm"
   viewBox="0 0 110.8526 69.272713"
   version="1.1"
   id="svg1"
   xml:space="preserve"
   inkscape:version="1.3-dev (38535c2, 2022-11-14)"
   sodipodi:docname="BlenderCAM Icon.svg"
   xmlns:inkscape="http://www.inkscape.org/namespaces/inkscape"
   xmlns:sodipodi="http://sodipodi.sourceforge.net/DTD/sodipodi-0.dtd"
   xmlns="http://www.w3.org/2000/svg"
   xmlns:svg="http://www.w3.org/2000/svg"><sodipodi:namedview
     id="namedview1"
     pagecolor="#ffffff"
     bordercolor="#000000"
     borderopacity="0.25"
     inkscape:showpageshadow="2"
     inkscape:pageopacity="0.0"
     inkscape:pagecheckerboard="0"
     inkscape:deskcolor="#d1d1d1"
     inkscape:document-units="mm"
     inkscape:zoom="0.53668681"
     inkscape:cx="-2048.6809"
     inkscape:cy="966.1128"
     inkscape:window-width="2560"
     inkscape:window-height="1415"
     inkscape:window-x="1680"
     inkscape:window-y="0"
     inkscape:window-maximized="1"
     inkscape:current-layer="layer1"
     showgrid="false" /><defs
     id="defs1" /><g
     inkscape:label="Calque 1"
     inkscape:groupmode="layer"
     id="layer1"
     transform="translate(736.87416,-153.95329)"><rect
       style="fill:#181818;fill-opacity:1;stroke:none;stroke-width:0.4;stroke-linecap:round;stroke-linejoin:round;stroke-dasharray:none;stroke-dashoffset:0;stroke-opacity:1"
       id="rect56"
       width="508.71652"
       height="286.60947"
       x="-935.83588"
       y="69.388832"
       sodipodi:insensitive="true" /><path
       style="fill:none;fill-opacity:1;stroke:#ffffff;stroke-width:0.331025;stroke-linecap:round;stroke-linejoin:round;stroke-dasharray:none;stroke-dashoffset:0;stroke-opacity:1"
       d="m -658.01837,194.48379 -3.43976,2.39185"
       id="path59" /><path
       style="fill:#ffffff;fill-opacity:1;stroke:none;stroke-width:0.48762;stroke-opacity:1"
       d="m -680.15029,176.137 c -1.55395,-0.005 -1.70793,0.008 -2.4876,0.22706 -1.61987,0.45281 -2.88008,1.19085 -3.97403,2.32757 -1.03665,1.07685 -1.60406,2.06017 -1.95516,3.38616 -0.21319,0.80537 -0.25499,2.42046 -0.0834,3.22793 0.67334,3.16847 3.50935,5.68905 7.0208,6.23988 0.68841,0.10798 2.75908,0.0412 3.43782,-0.11087 2.70822,-0.60635 5.02965,-2.47247 6.01032,-4.83028 0.40694,-0.97853 0.55276,-1.8687 0.50296,-3.07219 -0.0492,-1.19017 -0.18829,-1.7686 -0.66246,-2.76503 -1.01712,-2.13553 -2.84115,-3.62321 -5.38843,-4.39384 -0.71586,-0.2166 -0.86979,-0.23149 -2.42082,-0.23637 z m -0.0405,0.13766 c 0.72858,0.003 1.47036,0.0929 2.20941,0.27996 2.46905,0.62512 4.45573,2.22126 5.47636,4.3989 0.48772,1.04073 0.62478,1.69297 0.62039,2.95072 -0.003,0.89607 -0.0385,1.17873 -0.22805,1.80974 -0.12358,0.41149 -0.32509,0.94679 -0.44777,1.18938 -1.08729,2.15048 -3.21395,3.7582 -5.69536,4.30691 -0.91057,0.20137 -2.90577,0.22102 -3.76313,0.0371 -0.67573,-0.14494 -1.6811,-0.49414 -2.25097,-0.78163 -1.46227,-0.73775 -2.87919,-2.13724 -3.58927,-3.54594 -0.62183,-1.23359 -0.85548,-3.00506 -0.57755,-4.37898 0.75395,-3.72697 4.31156,-6.27909 8.24594,-6.2661 z"
       id="path23-4-0-0" /><path
       id="path1-6-0-8-99"
       style="fill:none;stroke:#ffffff;stroke-width:0.169523;stroke-dasharray:none;stroke-opacity:1"
       d="m -687.85608,154.03974 c -1.17601,0.0256 -2.35798,0.46764 -3.03809,1.24221 -0.83629,0.95248 -0.78828,2.38047 0.10782,3.21328 0.23993,0.22301 1.60843,1.34044 7.34028,5.99033 l 0.68681,0.55627 -5.86154,0.057 c -3.22322,0.031 -8.91627,0.0561 -12.65078,0.0561 -5.90667,0 -6.85823,0.0175 -7.31225,0.13409 -1.32195,0.33942 -2.46072,1.20856 -2.99253,2.28469 -0.29326,0.59345 -0.30724,0.65772 -0.27595,1.33245 0.0219,0.47204 0.0883,0.82066 0.19799,1.04511 0.29897,0.61245 0.94163,1.13105 1.78097,1.43582 0.17468,0.0634 2.38754,0.10765 6.89262,0.13748 l 6.63507,0.0437 -2.93557,2.25053 c -3.65702,2.80459 -5.62205,4.31317 -10.2496,7.86503 -2.00878,1.54196 -4.95774,3.80541 -6.55271,5.02929 -3.01895,2.31726 -3.64817,2.89115 -4.14014,3.77746 -0.46334,0.83438 -0.58561,1.38083 -0.54576,2.43011 0.0298,0.78638 0.0656,0.96694 0.28032,1.39815 0.32545,0.65306 1.07232,1.34405 1.71089,1.58299 1.36151,0.50943 3.06784,0.31982 4.40207,-0.48882 0.47658,-0.28883 12.53134,-10.07731 12.77257,-10.37136 0.0953,-0.1163 0.10256,-0.0861 0.0465,0.20237 -0.0363,0.18689 -0.0649,0.87459 -0.0631,1.52867 0.003,0.95162 0.0493,1.40575 0.23039,2.27068 1.17191,5.59506 5.1195,10.59623 10.60964,13.44098 2.4285,1.25801 5.34168,2.14819 7.92197,2.41959 0.46715,0.0492 0.98321,0.10528 1.14672,0.12443 0.52916,0.0624 4.01509,-0.0264 4.71481,-0.12002 2.63437,-0.35198 4.92709,-1.02064 7.17558,-2.09371 2.78844,-1.3306 5.18753,-3.16437 7.08272,-5.35869 -0.0531,0.003 -0.10629,0.005 -0.15935,0.008 -0.0298,-0.001 -0.0595,-0.003 -0.0893,-0.005 -3.58196,4.07017 -8.88609,6.8192 -14.9022,7.36042 -6.72291,0.60447 -13.45961,-1.75437 -18.05591,-6.32408 -3.34619,-3.32653 -5.50137,-7.91562 -5.50498,-11.72307 -5.7e-4,-0.60735 0.0273,-1.28098 0.0614,-1.49714 0.047,-0.29655 0.0342,-0.40384 -0.0525,-0.43715 -0.0671,-0.0258 -2.72579,2.09159 -6.38628,5.08538 -3.44882,2.82096 -6.43852,5.22659 -6.64297,5.34642 -1.79073,1.0495 -3.92606,0.99145 -5.16508,-0.14104 -0.68404,-0.6252 -0.92495,-1.17546 -0.96626,-2.20408 -0.0521,-1.29384 0.32148,-2.29405 1.23258,-3.3009 0.30414,-0.33613 4.13773,-3.33114 11.22372,-8.76997 5.91867,-4.5428 11.04564,-8.47902 11.39281,-8.7463 0.3472,-0.26729 0.64085,-0.54671 0.65176,-0.62112 0.018,-0.12273 -0.5868,-0.13561 -6.5352,-0.13222 -6.9835,0.005 -6.94612,0.007 -7.76339,-0.41174 -2.41829,-1.23614 -1.33562,-4.58574 1.75907,-5.4428 0.61791,-0.17113 0.8204,-0.17513 7.34816,-0.1752 10.85502,-1.2e-4 18.82818,-0.0939 18.79878,-0.21989 -0.0136,-0.0583 -1.82184,-1.56469 -4.01748,-3.34819 -2.19569,-1.7834 -4.09738,-3.34238 -4.22598,-3.46384 -0.61412,-0.58007 -0.76008,-1.54584 -0.35831,-2.36705 0.51062,-1.04364 1.86962,-1.69222 3.24484,-1.72226 0.62511,-0.0136 1.25347,0.10053 1.80725,0.36354 0.2684,0.12748 6.85353,5.05335 14.81314,11.17392 0.0553,-0.0346 0.1107,-0.0687 0.16647,-0.10256 -1.98377,-1.52223 -5.09461,-3.82213 -10.6073,-8.05611 -2.10359,-1.6157 -3.98668,-3.02069 -4.18394,-3.12132 -0.59181,-0.30195 -1.29529,-0.43667 -2.00086,-0.42137 z"
       sodipodi:nodetypes="csscccscssssccccccscsscccccsccccccccscsccssssssccssscsscsccssc" /><g
       id="g20-5-1-4"
       transform="matrix(3.4451349,0,0,3.4451349,-903.19122,-211.92838)"
       style="fill:none;stroke:#ffffff;stroke-width:0.109023;stroke-dasharray:none;stroke-opacity:1"><path
         style="fill:none;fill-opacity:1;stroke:#ffffff;stroke-width:0.109023;stroke-dasharray:none;stroke-opacity:1"
         d="m 68.313768,113.77429 c -0.01448,-0.0145 -0.02632,-0.37845 -0.02632,-0.80884 0,-0.701 0.0074,-0.78994 0.07104,-0.85357 0.03904,-0.0391 0.514013,-0.37077 1.05544,-0.73712 0.541421,-0.36635 1.126449,-0.76225 1.30005,-0.87978 0.173606,-0.11753 0.346721,-0.23032 0.384695,-0.25066 0.06476,-0.0347 0.06905,0.0156 0.06905,0.81053 v 0.84751 l -0.976533,0.65997 c -0.537088,0.36299 -1.166259,0.79009 -1.398153,0.94912 -0.449654,0.30836 -0.439383,0.30273 -0.479281,0.26284 z"
         id="path19-9-3-5" /><path
         style="fill:#f9a65c;fill-opacity:1;stroke:none;stroke-width:0.109023;stroke-dasharray:none;stroke-opacity:1"
         d="m 68.287448,115.3846 c 0,-0.61603 0.01277,-0.84223 0.04934,-0.87372 0.05366,-0.0462 0.205555,-0.14971 1.754632,-1.19551 0.569011,-0.38415 1.043959,-0.69845 1.055439,-0.69845 0.01148,0 0.02089,0.3803 0.02089,0.84511 v 0.84511 l -1.378108,0.93055 c -0.757956,0.5118 -1.406018,0.94125 -1.440129,0.95434 -0.05519,0.0212 -0.06203,-0.0678 -0.06203,-0.80743 z"
         id="path18-4-1-1" /><path
         style="fill:none;fill-opacity:1;stroke:#ffffff;stroke-width:0.109023;stroke-dasharray:none;stroke-opacity:1"
         d="m 69.074918,117.86133 c -0.357158,-0.24047 -0.680447,-0.46516 -0.718421,-0.49931 -0.0709,-0.0638 -0.09628,-0.34334 -0.03884,-0.42795 0.01593,-0.0235 0.392964,-0.28854 0.837829,-0.58898 0.44486,-0.30044 1.054736,-0.71301 1.355271,-0.91683 0.30054,-0.20381 0.571571,-0.38021 0.602295,-0.392 0.04753,-0.0183 0.0543,0.15324 0.04541,1.15236 l -0.01045,1.17379 -0.690474,0.46633 c -0.379761,0.25648 -0.700092,0.46711 -0.711852,0.46806 -0.01174,10e-4 -0.313588,-0.195 -0.670745,-0.43547 z"
         id="path17-6-1-0" /><path
         id="path3-92-0-3"
         style="fill:#f9a65c;fill-opacity:1;stroke:none;stroke-width:0.109023;stroke-dasharray:none;stroke-opacity:1"
         d="m 67.443429,107.18209 0.186551,0.74931 c 0.248815,0.99948 0.218238,0.93689 0.459404,0.93689 h 0.197921 v 1.26246 c 0,0.87882 0.01321,1.26297 0.04289,1.26297 0.03638,0 1.972551,-1.29121 2.623096,-1.74925 l 0.214457,-0.15089 v -0.31265 -0.31264 l 0.187585,-5.2e-4 c 0.232978,-7.5e-4 0.268591,-0.0236 0.304891,-0.19637 0.01596,-0.076 0.09629,-0.39589 0.178284,-0.71055 0.08199,-0.31466 0.159933,-0.62088 0.173633,-0.68058 l 0.02274,-0.0982 z" /></g><g
       inkscape:label="Hershey Text"
       style="fill:none;stroke:#000000;stroke-linecap:round;stroke-linejoin:round"
       id="g34-3-7"
       transform="matrix(1.695227,0,0,1.695227,-846.48083,-67.24937)"><g
         transform="translate(62.459,171.113)"
         id="g33-4-8"
         style="stroke:#ffffff;stroke-opacity:1"><path
           d="M 220,662 V 0 m 0,662 h 284 l 94,-32 32,-32 32,-62 v -64 l -32,-62 -32,-32 -94,-32 m -284,0 h 284 l 94,-31 32,-31 32,-64 V 126 L 630,63 598,31.5 504,0 H 220"
           style="stroke:#ffffff;stroke-width:0.2584in;stroke-opacity:1"
           transform="scale(0.0105833,-0.0105833)"
           id="path24-0-8" /><path
           d="M 220,662 V 0 m 0,0 h 378"
           style="stroke:#ffffff;stroke-width:0.2584in;stroke-opacity:1"
           transform="matrix(0.0105833,0,0,-0.0105833,7.00614,0)"
           id="path25-3-6" /><path
           d="M 220,662 V 0 m 0,662 H 630 M 220,346 H 472 M 220,0 h 410"
           style="stroke:#ffffff;stroke-width:0.2584in;stroke-opacity:1"
           transform="matrix(0.0105833,0,0,-0.0105833,12.6788,0)"
           id="path26-9-0" /><path
           d="M 220,662 V 0 M 220,662 662,0 m 0,662 V 0"
           style="stroke:#ffffff;stroke-width:0.2584in;stroke-opacity:1"
           transform="matrix(0.0105833,0,0,-0.0105833,19.0076,0)"
           id="path27-1-4" /><path
           d="M 220,662 V 0 m 0,662 h 221 l 95,-32 62,-63 32,-63 32,-94 V 252 L 630,158 598,94.5 536,31.5 441,0 H 220"
           style="stroke:#ffffff;stroke-width:0.2584in;stroke-opacity:1"
           transform="matrix(0.0105833,0,0,-0.0105833,26.3418,0)"
           id="path28-9-6" /><path
           d="M 220,662 V 0 m 0,662 H 630 M 220,346 H 472 M 220,0 h 410"
           style="stroke:#ffffff;stroke-width:0.2584in;stroke-opacity:1"
           transform="matrix(0.0105833,0,0,-0.0105833,33.348,0)"
           id="path29-6-7" /><path
           d="M 220,662 V 0 m 0,662 h 284 l 94,-32 32,-32 32,-62 V 472 L 630,410 598,378 504,346 H 220 M 441,346 662,0"
           style="stroke:#ffffff;stroke-width:0.2584in;stroke-opacity:1"
           transform="matrix(0.0105833,0,0,-0.0105833,39.6768,0)"
           id="path30-9-6" /><path
           d="m 662,504 -32,63 -63,63 -63,32 H 378 L 315,630 252,567 220,504 189,410 V 252 l 31,-94 32,-63.5 63,-63 L 378,0 h 126 l 63,31.5 63,63 32,63.5"
           style="stroke:#f9a65c;stroke-width:44.5904;stroke-dasharray:none;stroke-opacity:1"
           transform="matrix(0.0105833,0,0,-0.0105833,46.6829,0)"
           id="path31-3-0" /><path
           d="M 378,662 126,0 M 378,662 630,0 M 220,220 h 316"
           style="stroke:#f9a65c;stroke-width:44.5904;stroke-dasharray:none;stroke-opacity:1"
           transform="matrix(0.0105833,0,0,-0.0105833,53.6891,0)"
           id="path32-3-9" /><path
           d="M 220,662 V 0 M 220,662 472,0 M 724,662 472,0 M 724,662 V 0"
           style="stroke:#f9a65c;stroke-width:44.5904;stroke-dasharray:none;stroke-opacity:1"
           transform="matrix(0.0105833,0,0,-0.0105833,59.6898,0)"
           id="path33-80-7" /></g></g><ellipse
       style="fill:#f9a65c;fill-opacity:1;stroke:none;stroke-width:0.4;stroke-linecap:round;stroke-linejoin:round;stroke-dasharray:none;stroke-dashoffset:0;stroke-opacity:1"
       id="path58"
       cx="-680.45801"
       cy="183.82054"
       rx="8.9632092"
       ry="7.9437099" /></g></svg>
